<svg xmlns="http://www.w3.org/2000/svg" xmlns:xlink="http://www.w3.org/1999/xlink" width="616" height="560" viewBox="0 0 616 560">
  <defs>
    <clipPath id="clip-Vice_captain">
      <rect width="616" height="560"/>
    </clipPath>
  </defs>
  <g id="Vice_captain" data-name="Vice captain" clip-path="url(#clip-Vice_captain)">
    <rect width="616" height="560" fill="#fff"/>
    <g id="Group_57" data-name="Group 57" transform="translate(67 42)" opacity="0.1">
      <circle id="Ellipse_3" data-name="Ellipse 3" cx="236.02" cy="236.02" r="236.02" transform="translate(0 0)" fill="#112a5e"/>
    </g>
    <g id="Group_58" data-name="Group 58" transform="translate(67.01 42)" opacity="0.1">
      <circle id="Ellipse_4" data-name="Ellipse 4" cx="179.03" cy="179.03" r="179.03" transform="translate(56.99 56.99)" fill="#112a5e"/>
    </g>
    <path id="Path_134" data-name="Path 134" d="M236.7,367.79C124.63,331,132.53,189.89,132.53,189.89,177.64,144.79,236,138.78,236,138.78s58.38,6,103.48,51.11c0,0,7.91,141.07-104.16,177.9Z" transform="translate(67 42)" fill="none"/>
    <path id="Path_146" data-name="Path 146" d="M45.48,270l27.35,27.35L45.48,324.69v.61h87.05V270Z" transform="translate(67 42)" fill="#e5b033"/>
    <path id="Path_157" data-name="Path 157" d="M101.44,309.67l31.09,15.63V309.67Z" transform="translate(67 42)" fill="#d69c0f"/>
    <path id="Path_147" data-name="Path 147" d="M426.56,270l-27.35,27.35,27.35,27.34v.61H339.5V270Z" transform="translate(67 42)" fill="#e5b033"/>
    <g id="Group_59" data-name="Group 59" transform="translate(-574.52 51)">
      <path id="security-on" d="M214.55,34.931c-38.149,0-67.375-10.9-92.089-34.931C97.751,24.031,68.526,34.931,30.38,34.931c0,62.583-12.95,152.232,92.081,188.64C227.5,187.163,214.55,97.514,214.55,34.931ZM114.833,145.059,84.155,114.376,97.891,100.64l16.943,16.947,32.2-32.2,13.735,13.735Z" transform="translate(754.647 133.2)" fill="#eea904"/>
      <ellipse id="Ellipse_5" data-name="Ellipse 5" cx="67.5" cy="65.5" rx="67.5" ry="65.5" transform="translate(817 185)" fill="#eea904"/>
    </g>
    <path id="Path_136" data-name="Path 136" d="M227.93,201.2a11.64,11.64,0,0,1-.91,4.62,21.32,21.32,0,0,1-2.43,4.28,35.552,35.552,0,0,1-3.38,4c-1.25,1.27-2.49,2.48-3.7,3.63-.63.59-1.31,1.26-2,2s-1.43,1.5-2.1,2.26-1.26,1.47-1.78,2.13a5.3,5.3,0,0,0-1,1.62l18.82-.14.06,7.89-29.18.22a10.379,10.379,0,0,1-.14-1.77v-1.51a15.4,15.4,0,0,1,.94-5.57,20.78,20.78,0,0,1,2.52-4.72,29.162,29.162,0,0,1,3.54-4.1l3.92-3.82,2.82-2.77a32.485,32.485,0,0,0,2.32-2.54,11.3,11.3,0,0,0,1.56-2.48,6,6,0,0,0,.55-2.5,4.48,4.48,0,0,0-1.61-3.9,6.55,6.55,0,0,0-3.92-1.11,9.5,9.5,0,0,0-3.19.56,16.56,16.56,0,0,0-2.71,1.28,18.924,18.924,0,0,0-2.1,1.47,17.538,17.538,0,0,0-1.32,1.18l-4.72-6.53a23.81,23.81,0,0,1,6.44-4.31,18.89,18.89,0,0,1,7.91-1.74,21.8,21.8,0,0,1,6.64.84,12.25,12.25,0,0,1,4.6,2.46A9.62,9.62,0,0,1,227,196a14.89,14.89,0,0,1,.93,5.2Z" transform="translate(67 42)" fill="#fff"/>
    <path id="Path_137" data-name="Path 137" d="M262.94,233.21c-1.26-2.42-2.62-4.88-4.11-7.37a26.7,26.7,0,0,0-5.09-6.31q-.87,1-2.22,2.73T248.84,226c-.9,1.31-1.73,2.66-2.51,4.07s-1.36,2.5-1.73,3.3l-11.25.08a115.78,115.78,0,0,1,6.45-10.63q3.72-5.49,8.3-11.66l-14.44-21.48,11.93-.09L254,202.18l8.43-12.73,11.24-.09-14.05,21.23a135.06,135.06,0,0,1,9.3,12.77q3.65,5.8,5.77,9.77Z" transform="translate(67 42)" fill="#fff"/>
    <path id="Path_139" data-name="Path 139" d="M212.22,235.49a6.6,6.6,0,0,1,3.61.8,3.557,3.557,0,0,1,.03,5.44,6.57,6.57,0,0,1-3.63.87h-.75v3.51h-2.36l-.08-10.35a13.369,13.369,0,0,1,1.63-.22C211.28,235.52,211.79,235.5,212.22,235.49Zm.17,2h-.94v3h.74a4,4,0,0,0,1.85-.35,1.27,1.27,0,0,0,.61-1.25,1.53,1.53,0,0,0-.16-.72,1.2,1.2,0,0,0-.46-.46,1.91,1.91,0,0,0-.72-.24,6.858,6.858,0,0,0-.92.04Z" transform="translate(67 42)" fill="#fff"/>
    <path id="Path_140" data-name="Path 140" d="M228.87,240.74a6.41,6.41,0,0,1-.38,2.37,4.92,4.92,0,0,1-1.09,1.72,4.44,4.44,0,0,1-1.65,1,6.081,6.081,0,0,1-2.07.37,6,6,0,0,1-2-.34,4.67,4.67,0,0,1-1.67-1,4.93,4.93,0,0,1-1.14-1.71,6.38,6.38,0,0,1-.43-2.37,6.19,6.19,0,0,1,.41-2.37,5.14,5.14,0,0,1,1.13-1.73,4.76,4.76,0,0,1,1.66-1.06,5.751,5.751,0,0,1,2-.36,5.66,5.66,0,0,1,2,.33,4.57,4.57,0,0,1,1.68,1,4.781,4.781,0,0,1,1.13,1.71A6.38,6.38,0,0,1,228.87,240.74Zm-8,.06a5,5,0,0,0,.2,1.39,3.15,3.15,0,0,0,.56,1.06,2.42,2.42,0,0,0,.87.69,3,3,0,0,0,2.36,0,2.39,2.39,0,0,0,.87-.7,3,3,0,0,0,.54-1.07,5.25,5.25,0,0,0,0-2.8,3.28,3.28,0,0,0-.55-1.07,2.49,2.49,0,0,0-.89-.68,2.78,2.78,0,0,0-1.17-.24,2.73,2.73,0,0,0-1.18.26,2.5,2.5,0,0,0-.87.71,3.22,3.22,0,0,0-.54,1.08,5,5,0,0,0-.22,1.37Z" transform="translate(67 42)" fill="#fff"/>
    <path id="Path_141" data-name="Path 141" d="M230.8,235.48h2.37l.08,10.5h-2.37Z" transform="translate(67 42)" fill="#fff"/>
    <path id="Path_142" data-name="Path 142" d="M242.72,245.89c-.69-1.2-1.43-2.38-2.23-3.54a33.53,33.53,0,0,0-2.54-3.3l.05,6.88h-2.33l-.08-10.5h1.93c.33.33.7.74,1.11,1.22s.82,1,1.25,1.54.84,1.12,1.26,1.7.81,1.16,1.18,1.7v-6.2h2.35l.08,10.51Z" transform="translate(67 42)" fill="#fff"/>
    <path id="Path_143" data-name="Path 143" d="M254.84,235.3v2h-3.16l.06,8.48h-2.36l-.07-8.49h-3.17v-2Z" transform="translate(67 42)" fill="#fff"/>
    <path id="Path_144" data-name="Path 144" d="M259.28,244a3.748,3.748,0,0,0,.83-.08,1.48,1.48,0,0,0,.52-.24.73.73,0,0,0,.27-.34,1.078,1.078,0,0,0-.42-1.29,6.389,6.389,0,0,0-1.67-.72,9.951,9.951,0,0,1-1-.41,3.679,3.679,0,0,1-.93-.59,2.76,2.76,0,0,1-.68-.86,2.7,2.7,0,0,1-.26-1.23,3,3,0,0,1,.26-1.31,2.69,2.69,0,0,1,.77-1,3.439,3.439,0,0,1,1.2-.64,5.35,5.35,0,0,1,1.61-.23,6.58,6.58,0,0,1,1.83.21,6.49,6.49,0,0,1,1.28.49l-.67,1.87a5.891,5.891,0,0,0-1-.39,4.14,4.14,0,0,0-1.3-.17,2.38,2.38,0,0,0-1.21.25.78.78,0,0,0-.37.72.83.83,0,0,0,.14.48,1.37,1.37,0,0,0,.39.36,3.481,3.481,0,0,0,.58.28l.72.26a14.885,14.885,0,0,1,1.43.59,3.8,3.8,0,0,1,1,.68,2.6,2.6,0,0,1,.61.92,3.719,3.719,0,0,1,.2,1.29,2.74,2.74,0,0,1-1,2.29,5,5,0,0,1-3.1.83,7.9,7.9,0,0,1-2.25-.27,6,6,0,0,1-.75-.25c-.2-.09-.38-.18-.52-.26l.65-1.88a5.72,5.72,0,0,0,2.85.64Z" transform="translate(67 42)" fill="#fff"/>
    <rect id="Rectangle_30" data-name="Rectangle 30" width="269.16" height="59.74" transform="translate(168.44 291.93)" fill="#f8c03b"/>
    <path id="Path_158" data-name="Path 158" d="M370.6,309.67,339.5,325.3V309.67Z" transform="translate(67 42)" fill="#d69c0f"/>
    <path id="Path_145" data-name="Path 145" d="M85,241.69a8.79,8.79,0,1,1,8.79-8.79A8.79,8.79,0,0,1,85,241.69Zm0-13.58a4.79,4.79,0,1,0,4.79,4.79A4.79,4.79,0,0,0,85,228.11Z" transform="translate(67 42)" fill="#ffd34d"/>
    <path id="Path_135" data-name="Path 135" d="M206.48,116.76a8.79,8.79,0,1,1,8.79-8.79,8.79,8.79,0,0,1-8.79,8.79Zm0-13.58a4.79,4.79,0,1,0,4.79,4.79,4.79,4.79,0,0,0-4.79-4.79Z" transform="translate(67 42)" fill="#ffd34d"/>
    <path id="Path_155" data-name="Path 155" d="M373.87,150a8.8,8.8,0,1,1,8.79-8.8A8.8,8.8,0,0,1,373.87,150Zm0-13.59a1.988,1.988,0,1,0,0-.05Z" transform="translate(67 42)" fill="#ffd34d"/>
    <path id="Path_156" data-name="Path 156" d="M373.87,228a8.8,8.8,0,1,1,8.79-8.79A8.8,8.8,0,0,1,373.87,228Zm0-13.59a4.785,4.785,0,1,1,0,.03Z" transform="translate(67 42)" fill="#f2ba49"/>
    <rect id="Rectangle_32" data-name="Rectangle 32" width="17.69" height="5.35" rx="2.11" transform="translate(389.716 174.895) rotate(-65)" fill="#ffd34d"/>
    <rect id="Rectangle_31" data-name="Rectangle 31" width="5.35" height="17.69" rx="2.11" transform="translate(386.723 166.692) rotate(-65)" fill="#ffd34d"/>
    <rect id="Rectangle_26" data-name="Rectangle 26" width="5.35" height="17.69" rx="2.11" transform="translate(197.566 172.631) rotate(-49.76)" fill="#ffd34d"/>
    <rect id="Rectangle_27" data-name="Rectangle 27" width="17.69" height="5.35" rx="2.11" transform="translate(198.284 181.335) rotate(-49.76)" fill="#ffd34d"/>
    <rect id="Rectangle_28" data-name="Rectangle 28" width="17.69" height="5.35" rx="2.11" transform="matrix(0.549, -0.836, 0.836, 0.549, 137.947, 200.783)" fill="#f2ba49"/>
    <rect id="Rectangle_29" data-name="Rectangle 29" width="5.35" height="17.69" rx="2.11" transform="matrix(0.549, -0.836, 0.836, 0.549, 136.188, 192.229)" fill="#f2ba49"/>
    <path id="Path_148" data-name="Path 148" d="M173.66,292.3q-5.79,0-8.82-3.22c-2-2.15-3-5.19-3-9.15a14.05,14.05,0,0,1,.93-5.26,11.27,11.27,0,0,1,2.54-3.9,10.64,10.64,0,0,1,3.83-2.42,14.069,14.069,0,0,1,4.83-.82,15.294,15.294,0,0,1,2.74.22,16.378,16.378,0,0,1,2.16.52,9.546,9.546,0,0,1,1.54.6,8.524,8.524,0,0,1,.89.48l-1.54,4.31a12.561,12.561,0,0,0-2.55-1,12.34,12.34,0,0,0-3.31-.41,7.4,7.4,0,0,0-2.41.41,5.311,5.311,0,0,0-2.09,1.32,6.54,6.54,0,0,0-1.46,2.35,10,10,0,0,0-.55,3.49,12.49,12.49,0,0,0,.36,3.07,6.49,6.49,0,0,0,1.17,2.45A5.65,5.65,0,0,0,171,287a7.44,7.44,0,0,0,3.15.6,14.727,14.727,0,0,0,2.09-.13,13.919,13.919,0,0,0,1.64-.33,8.182,8.182,0,0,0,1.27-.43l1-.44,1.48,4.28a12.351,12.351,0,0,1-3.19,1.23,18.369,18.369,0,0,1-4.78.52Z" transform="translate(67 42)" fill="#fff"/>
    <path id="Path_149" data-name="Path 149" d="M201.92,291.82c-.26-.82-.55-1.67-.85-2.54s-.61-1.74-.91-2.6h-9.27l-.9,2.61c-.31.87-.59,1.71-.85,2.53h-5.55c.9-2.56,1.74-4.92,2.55-7.09s1.58-4.21,2.35-6.13,1.52-3.74,2.27-5.47,1.52-3.41,2.32-5.05h5.07c.78,1.64,1.54,3.33,2.3,5.05s1.52,3.55,2.29,5.47,1.56,4,2.36,6.13,1.65,4.53,2.55,7.09Zm-6.42-18.36c-.12.34-.29.81-.52,1.41s-.5,1.27-.79,2.05-.62,1.64-1,2.57-.73,1.92-1.11,2.94h6.79c-.36-1-.71-2-1-2.95a25.6,25.6,0,0,0-1-2.57c-.33-.78-.58-1.46-.81-2.06s-.42-1.05-.56-1.39Z" transform="translate(67 42)" fill="#fff"/>
    <path id="Path_150" data-name="Path 150" d="M217.82,267.81q5.31,0,8.16,1.86t2.84,6.12q0,4.27-2.88,6.18t-8.22,1.9H216v7.95h-5.35v-23.4a29.766,29.766,0,0,1,3.71-.48C215.7,267.85,216.84,267.81,217.82,267.81Zm.34,4.55h-1.14l-1,.06v6.86h1.68a9,9,0,0,0,4.18-.76,2.9,2.9,0,0,0,1.4-2.81,3.35,3.35,0,0,0-.36-1.64,2.8,2.8,0,0,0-1-1.05,4.54,4.54,0,0,0-1.62-.54,12.649,12.649,0,0,0-2.14-.12Z" transform="translate(67 42)" fill="#fff"/>
    <path id="Path_151" data-name="Path 151" d="M250.81,268.08v4.56h-7.16v19.18h-5.34V272.64h-7.16v-4.56Z" transform="translate(67 42)" fill="#fff"/>
    <path id="Path_152" data-name="Path 152" d="M267.36,291.82c-.27-.82-.55-1.67-.85-2.54s-.61-1.74-.91-2.6h-9.28l-.9,2.61c-.3.87-.58,1.71-.84,2.53H249c.9-2.56,1.74-4.92,2.54-7.09s1.59-4.21,2.36-6.13,1.52-3.74,2.27-5.47,1.51-3.41,2.32-5.05h5.06c.78,1.64,1.55,3.33,2.31,5.05s1.52,3.55,2.29,5.47,1.55,4,2.36,6.13,1.65,4.53,2.54,7.09Zm-6.42-18.36c-.12.34-.3.81-.53,1.41s-.49,1.27-.78,2.05-.62,1.64-1,2.57-.74,1.92-1.11,2.94h6.79c-.36-1-.72-2-1.06-2.95s-.66-1.79-1-2.57l-.8-2.06c-.18-.59-.37-1.05-.51-1.39Z" transform="translate(67 42)" fill="#fff"/>
    <path id="Path_153" data-name="Path 153" d="M276.13,268.08h5.35v23.74h-5.35Z" transform="translate(67 42)" fill="#fff"/>
    <path id="Path_154" data-name="Path 154" d="M302.89,291.82q-2.29-4.08-5-8.05a81.1,81.1,0,0,0-5.69-7.5v15.55H287V268.08h4.35c.75.75,1.59,1.68,2.5,2.77s1.84,2.27,2.79,3.52,1.89,2.53,2.83,3.87,1.81,2.62,2.64,3.85v-14h5.31v23.74Z" transform="translate(67 42)" fill="#fff"/>
    <path id="Path_138" data-name="Path 138" d="M256.26,88.46a8.8,8.8,0,1,1,8.79-8.79A8.8,8.8,0,0,1,256.26,88.46Zm0-13.59a4.8,4.8,0,1,0,4.79,4.8,4.8,4.8,0,0,0-4.79-4.8Z" transform="translate(67 42)" fill="#f2ba49"/>
    <rect id="Rectangle_33" data-name="Rectangle 33" width="229" height="44" transform="translate(184 302)" fill="#f8c03b"/>
    <path id="Path_97" data-name="Path 97" d="M126.56,291.82q-1.43-3-2.8-6.21t-2.62-6.36q-1.24-3.15-2.28-6c-.7-1.92-1.29-3.63-1.8-5.14H123c.45,1.37.94,2.85,1.49,4.44s1.09,3.16,1.66,4.74,1.1,3.08,1.62,4.52,1,2.69,1.49,3.74c.44-1,.93-2.29,1.46-3.73s1.07-3,1.64-4.52,1.12-3.16,1.66-4.74,1-3.07,1.49-4.45h5.69c-.54,1.51-1.15,3.23-1.84,5.14s-1.45,3.93-2.27,6-1.69,4.23-2.6,6.37-1.84,4.22-2.79,6.2Z" transform="translate(69 42)" fill="#fff"/>
    <path id="Path_98" data-name="Path 98" d="M144.2,268.08h5.34v23.74H144.2Z" transform="translate(69 42)" fill="#fff"/>
    <path id="Path_99" data-name="Path 99" d="M165.85,292.3q-5.79,0-8.82-3.22c-2-2.15-3-5.19-3-9.15a14.05,14.05,0,0,1,.93-5.26,11.39,11.39,0,0,1,2.53-3.9,10.77,10.77,0,0,1,3.84-2.42,14.07,14.07,0,0,1,4.83-.82,15.288,15.288,0,0,1,2.74.22,16.781,16.781,0,0,1,2.16.52,9.554,9.554,0,0,1,1.54.6,8.517,8.517,0,0,1,.89.48l-1.54,4.31a12.561,12.561,0,0,0-2.55-1,12.34,12.34,0,0,0-3.31-.41,7.4,7.4,0,0,0-2.41.41,5.311,5.311,0,0,0-2.09,1.32,6.54,6.54,0,0,0-1.46,2.35,10,10,0,0,0-.55,3.49,12.489,12.489,0,0,0,.36,3.07,6.49,6.49,0,0,0,1.17,2.45,5.65,5.65,0,0,0,2.11,1.62,7.44,7.44,0,0,0,3.15.6,14.727,14.727,0,0,0,2.09-.13,14.343,14.343,0,0,0,1.64-.33,8.179,8.179,0,0,0,1.27-.43l1-.44,1.48,4.28a12.349,12.349,0,0,1-3.19,1.23A18.37,18.37,0,0,1,165.85,292.3Z" transform="translate(69 42)" fill="#fff"/>
    <path id="Path_100" data-name="Path 100" d="M177.22,291.82V268.08h16v4.49H182.57v4.66h9.49v4.38h-9.49v5.72H194v4.49Z" transform="translate(69 42)" fill="#fff"/>
    <path id="Path_101" data-name="Path 101" d="M217,292.3q-5.79,0-8.82-3.22c-2-2.15-3-5.19-3-9.15a14.26,14.26,0,0,1,.92-5.26,11.41,11.41,0,0,1,2.54-3.9,10.6,10.6,0,0,1,3.84-2.42,14,14,0,0,1,4.83-.82,15.359,15.359,0,0,1,2.74.22,17.2,17.2,0,0,1,2.16.52,9.929,9.929,0,0,1,1.54.6,8.518,8.518,0,0,1,.89.48l-1.54,4.31a12.4,12.4,0,0,0-5.86-1.4,7.449,7.449,0,0,0-2.42.41,5.38,5.38,0,0,0-2.09,1.32,6.52,6.52,0,0,0-1.45,2.35,9.72,9.72,0,0,0-.55,3.49,12.49,12.49,0,0,0,.36,3.07,6.62,6.62,0,0,0,1.16,2.45,5.65,5.65,0,0,0,2.11,1.62,7.5,7.5,0,0,0,3.15.6,14.527,14.527,0,0,0,2.09-.13,14.117,14.117,0,0,0,1.65-.33,7.7,7.7,0,0,0,1.26-.43l1-.44,1.47,4.28a12.06,12.06,0,0,1-3.19,1.23A18.319,18.319,0,0,1,217,292.3Z" transform="translate(69 42)" fill="#fff"/>
    <path id="Path_102" data-name="Path 102" d="M245.3,291.82c-.27-.82-.55-1.67-.86-2.54s-.6-1.74-.91-2.6h-9.27l-.9,2.61c-.3.87-.58,1.71-.84,2.53H227q1.34-3.84,2.54-7.09c.8-2.17,1.59-4.21,2.35-6.13s1.53-3.74,2.27-5.47,1.52-3.41,2.32-5.05h5.07c.78,1.64,1.55,3.33,2.31,5.05s1.52,3.55,2.28,5.47,1.56,4,2.36,6.13,1.65,4.53,2.55,7.09Zm-6.43-18.36c-.12.34-.29.81-.52,1.41s-.49,1.27-.78,2.05l-1,2.57c-.36.94-.73,1.92-1.1,2.94h6.79l-1.06-2.95c-.34-.93-.66-1.79-1-2.57s-.58-1.46-.81-2.06-.39-1.05-.52-1.39Z" transform="translate(69 42)" fill="#fff"/>
    <path id="Path_103" data-name="Path 103" d="M261.19,267.81c3.55,0,6.26.62,8.16,1.86s2.84,3.29,2.84,6.12-1,4.91-2.87,6.18-4.67,1.9-8.23,1.9h-1.68v7.95h-5.34v-23.4a29.6,29.6,0,0,1,3.7-.48C259.07,267.85,260.21,267.81,261.19,267.81Zm.35,4.55h-1.15l-1,.06v6.86h1.68a9,9,0,0,0,4.18-.76,2.89,2.89,0,0,0,1.41-2.81,3.35,3.35,0,0,0-.36-1.64,2.88,2.88,0,0,0-1-1.05,4.671,4.671,0,0,0-1.63-.54A12.613,12.613,0,0,0,261.54,272.36Z" transform="translate(69 42)" fill="#fff"/>
    <path id="Path_104" data-name="Path 104" d="M294.19,268.08v4.56H287v19.18h-5.35V272.64h-7.16v-4.56Z" transform="translate(69 42)" fill="#fff"/>
    <path id="Path_105" data-name="Path 105" d="M310.73,291.82c-.26-.82-.55-1.67-.85-2.54s-.61-1.74-.91-2.6H299.7l-.9,2.61c-.3.87-.58,1.71-.84,2.53h-5.55q1.33-3.84,2.54-7.09t2.35-6.13q1.15-2.88,2.27-5.47c.75-1.72,1.52-3.41,2.32-5.05H307c.78,1.64,1.55,3.33,2.3,5.05s1.52,3.55,2.29,5.47,1.56,4,2.36,6.13,1.65,4.53,2.55,7.09Zm-6.42-18.36c-.12.34-.29.81-.52,1.41l-.79,2.05c-.29.78-.62,1.64-1,2.57s-.73,1.92-1.11,2.94h6.79c-.36-1-.71-2-1.05-2.95s-.67-1.79-1-2.57-.58-1.46-.81-2.06-.37-1.05-.51-1.39Z" transform="translate(69 42)" fill="#fff"/>
    <path id="Path_106" data-name="Path 106" d="M319.51,268.08h5.34v23.74h-5.34Z" transform="translate(69 42)" fill="#fff"/>
    <path id="Path_107" data-name="Path 107" d="M346.26,291.82q-2.29-4.08-5-8.05a82.914,82.914,0,0,0-5.69-7.5v15.55h-5.28V268.08h4.35c.76.75,1.59,1.68,2.5,2.77s1.85,2.27,2.8,3.52,1.89,2.53,2.82,3.87,1.82,2.62,2.64,3.85v-14h5.31v23.74Z" transform="translate(69 42)" fill="#fff"/>
  </g>
</svg>